<?xml version="1.0" encoding="UTF-8" standalone="no"?>
<!-- Created with Inkscape (http://www.inkscape.org/) -->

<svg
   width="155.97897mm"
   height="113.59621mm"
   viewBox="0 0 155.97897 113.59621"
   version="1.1"
   id="svg1"
   inkscape:version="1.4 (86a8ad7, 2024-10-11)"
   sodipodi:docname="sekundaer_aktiver_Transport_eW.svg"
   xmlns:inkscape="http://www.inkscape.org/namespaces/inkscape"
   xmlns:sodipodi="http://sodipodi.sourceforge.net/DTD/sodipodi-0.dtd"
   xmlns="http://www.w3.org/2000/svg"
   xmlns:svg="http://www.w3.org/2000/svg">
  <sodipodi:namedview
     id="namedview1"
     pagecolor="#ffffff"
     bordercolor="#000000"
     borderopacity="0.25"
     inkscape:showpageshadow="2"
     inkscape:pageopacity="0.0"
     inkscape:pagecheckerboard="0"
     inkscape:deskcolor="#d1d1d1"
     inkscape:document-units="mm"
     inkscape:zoom="1.0356235"
     inkscape:cx="279.54174"
     inkscape:cy="111.52702"
     inkscape:window-width="1920"
     inkscape:window-height="1017"
     inkscape:window-x="-8"
     inkscape:window-y="-8"
     inkscape:window-maximized="1"
     inkscape:current-layer="layer1" />
  <defs
     id="defs1">
    <inkscape:path-effect
       effect="bspline"
       id="path-effect14"
       is_visible="true"
       lpeversion="1.3"
       weight="33.333333"
       steps="2"
       helper_size="0"
       apply_no_weight="true"
       apply_with_weight="true"
       only_selected="false"
       uniform="false" />
    <inkscape:path-effect
       effect="bspline"
       id="path-effect11"
       is_visible="true"
       lpeversion="1.3"
       weight="33.333333"
       steps="2"
       helper_size="0"
       apply_no_weight="true"
       apply_with_weight="true"
       only_selected="false"
       uniform="false" />
    <inkscape:path-effect
       effect="bspline"
       id="path-effect10"
       is_visible="true"
       lpeversion="1.3"
       weight="33.333333"
       steps="2"
       helper_size="0"
       apply_no_weight="true"
       apply_with_weight="true"
       only_selected="false"
       uniform="false" />
    <inkscape:path-effect
       effect="bspline"
       id="path-effect9"
       is_visible="true"
       lpeversion="1.3"
       weight="33.333333"
       steps="2"
       helper_size="0"
       apply_no_weight="true"
       apply_with_weight="true"
       only_selected="false"
       uniform="false" />
    <inkscape:path-effect
       effect="simplify"
       id="path-effect8"
       is_visible="true"
       lpeversion="1.3"
       threshold="100"
       steps="1"
       smooth_angles="360"
       helper_size="0"
       simplify_individual_paths="false"
       simplify_just_coalesce="false" />
    <inkscape:path-effect
       effect="simplify"
       id="path-effect7"
       is_visible="true"
       lpeversion="1.3"
       threshold="100"
       steps="1"
       smooth_angles="360"
       helper_size="0"
       simplify_individual_paths="false"
       simplify_just_coalesce="false" />
    <inkscape:path-effect
       effect="simplify"
       id="path-effect6"
       is_visible="true"
       lpeversion="1.3"
       threshold="100"
       steps="1"
       smooth_angles="360"
       helper_size="0"
       simplify_individual_paths="false"
       simplify_just_coalesce="false" />
    <inkscape:path-effect
       effect="bspline"
       id="path-effect14-3"
       is_visible="true"
       lpeversion="1.3"
       weight="33.333333"
       steps="2"
       helper_size="0"
       apply_no_weight="true"
       apply_with_weight="true"
       only_selected="false"
       uniform="false" />
  </defs>
  <g
     inkscape:label="Ebene 1"
     inkscape:groupmode="layer"
     id="layer1"
     transform="translate(-50.260316,-43.669742)">
    <g
       id="g19">
      <rect
         style="fill:#999999;stroke:none;stroke-width:0.4;stroke-miterlimit:3.8"
         id="rect1-3"
         width="143.33745"
         height="10.116395"
         x="62.104259"
         y="105.52325" />
      <rect
         style="fill:#999999;stroke:none;stroke-width:0.4;stroke-miterlimit:3.8"
         id="rect1"
         width="143.33745"
         height="10.116395"
         x="62.218853"
         y="93.622284" />
      <path
         id="path2"
         style="fill:#0000ff;stroke:#000000;stroke-width:0.5;stroke-miterlimit:3.8;stroke-dasharray:none"
         d="m 98.359888,84.143701 a 9.695837,18.826651 0 0 0 -9.696049,18.826759 9.695837,18.826651 0 0 0 1.7663,10.77092 9.9896498,7.8764553 0 0 0 -2.060339,4.78989 9.9896498,7.8764553 0 0 0 9.990088,7.876 9.9896498,7.8764553 0 0 0 2.570902,-0.29662 3.75,3.75 0 0 1 -0.65009,-2.10065 3.75,3.75 0 0 1 3.75016,-3.75016 3.75,3.75 0 0 1 3.21272,1.81643 9.9896498,7.8764553 0 0 0 1.10588,-3.545 9.9896498,7.8764553 0 0 0 -2.06034,-4.78938 9.695837,18.826651 0 0 0 1.7663,-10.77143 9.695837,18.826651 0 0 0 -9.695532,-18.826759 z" />
      <path
         style="font-weight:bold;font-size:12.7px;line-height:1;font-family:Carlito;-inkscape-font-specification:'Carlito Bold';letter-spacing:0px;stroke-width:0.4;stroke-miterlimit:3.8"
         d="m 68.142639,126.38683 h -1.252637 q -0.217041,0 -0.347265,-0.0992 -0.130225,-0.10542 -0.192237,-0.26044 l -0.520898,-1.61851 h -3.032373 l -0.514697,1.6123 q -0.04961,0.13643 -0.192237,0.25425 -0.136425,0.11162 -0.341064,0.11162 h -1.27124 l 3.001367,-8.23515 h 1.661914 z m -4.979541,-3.11919 h 2.294434 l -0.837159,-2.60449 q -0.07441,-0.19223 -0.155029,-0.44648 -0.08062,-0.26045 -0.16123,-0.56431 -0.07441,0.30386 -0.15503,0.56431 -0.08062,0.26045 -0.148828,0.45268 z m 10.169922,-5.11596 v 1.32705 h -2.220019 v 6.9081 h -1.624707 v -6.9081 h -2.22002 v -1.32705 z m 2.455664,5.37641 v 2.85874 h -1.630908 v -8.23515 h 2.6479 q 0.799951,0 1.37666,0.19843 0.576709,0.19844 0.954981,0.55191 0.378271,0.34726 0.558105,0.83096 0.179834,0.48369 0.179834,1.0604 0,0.60771 -0.192236,1.11001 -0.186035,0.50229 -0.570508,0.86196 -0.378271,0.35967 -0.95498,0.56431 -0.576709,0.19843 -1.351856,0.19843 z m 0,-1.26504 h 1.016992 q 0.744141,0 1.091406,-0.39067 0.347266,-0.39687 0.347266,-1.079 0,-0.63872 -0.353467,-1.01079 -0.353467,-0.37828 -1.085205,-0.37828 h -1.016992 z"
         id="text4"
         aria-label="ATP" />
      <g
         id="text5"
         style="font-size:12.7px;line-height:1;font-family:Carlito;-inkscape-font-specification:Carlito;letter-spacing:0px;stroke-width:0.4;stroke-miterlimit:3.8"
         aria-label="ADP + Pi">
        <path
           style="font-weight:bold;-inkscape-font-specification:'Carlito Bold'"
           d="m 79.94516,145.94508 h -1.252637 q -0.217041,0 -0.347266,-0.0992 -0.130224,-0.10542 -0.192236,-0.26044 l -0.520898,-1.61851 H 74.59975 l -0.514698,1.6123 q -0.04961,0.13643 -0.192236,0.25425 -0.136426,0.11162 -0.341064,0.11162 h -1.271241 l 3.001368,-8.23515 h 1.661914 z m -4.979541,-3.11919 h 2.294433 l -0.837158,-2.60449 q -0.07441,-0.19223 -0.155029,-0.44648 -0.08061,-0.26045 -0.161231,-0.56431 -0.07441,0.30386 -0.155029,0.56431 -0.08061,0.26045 -0.148828,0.45268 z m 12.7,-1.00459 q 0,0.90538 -0.285254,1.66812 -0.285254,0.75654 -0.812354,1.30225 -0.520898,0.5457 -1.258837,0.84956 -0.73794,0.30385 -1.63711,0.30385 h -3.001367 v -8.23515 h 3.001367 q 0.89917,0 1.63711,0.30385 0.737939,0.30386 1.258837,0.84957 0.5271,0.5457 0.812354,1.30224 0.285254,0.75654 0.285254,1.65571 z m -1.655713,0 q 0,-0.65732 -0.16123,-1.17822 -0.161231,-0.5209 -0.465088,-0.88677 -0.297657,-0.36586 -0.731739,-0.5581 -0.434082,-0.19844 -0.979785,-0.19844 h -1.364258 v 5.64927 h 1.364258 q 0.545703,0 0.979785,-0.19224 0.434082,-0.19223 0.731739,-0.5581 0.303857,-0.36587 0.465088,-0.88677 0.16123,-0.5271 0.16123,-1.19063 z m 4.29121,1.26504 v 2.85874 h -1.630908 v -8.23515 h 2.6479 q 0.799951,0 1.37666,0.19843 0.576709,0.19844 0.954981,0.55191 0.378271,0.34726 0.558105,0.83096 0.179834,0.48369 0.179834,1.0604 0,0.60771 -0.192236,1.11001 -0.186035,0.50229 -0.570508,0.86196 -0.378271,0.35967 -0.95498,0.56431 -0.576709,0.19843 -1.351856,0.19843 z m 0,-1.26504 h 1.016992 q 0.744141,0 1.091407,-0.39067 0.347265,-0.39687 0.347265,-1.079 0,-0.63872 -0.353467,-1.01079 -0.353466,-0.37828 -1.085205,-0.37828 h -1.016992 z m 11.081494,-2.90835 v 2.43086 h 2.28823 v 1.16582 h -2.28823 v 2.44327 h -1.28364 v -2.44327 h -2.282033 v -1.16582 h 2.282033 v -2.43086 z m 7.74527,4.17339 v 2.85874 h -1.63091 v -8.23515 h 2.6479 q 0.79995,0 1.37666,0.19843 0.57671,0.19844 0.95498,0.55191 0.37827,0.34726 0.5581,0.83096 0.17984,0.48369 0.17984,1.0604 0,0.60771 -0.19224,1.11001 -0.18603,0.50229 -0.57051,0.86196 -0.37827,0.35967 -0.95498,0.56431 -0.57671,0.19843 -1.35185,0.19843 z m 0,-1.26504 h 1.01699 q 0.74414,0 1.0914,-0.39067 0.34727,-0.39687 0.34727,-1.079 0,-0.63872 -0.35347,-1.01079 -0.35346,-0.37828 -1.0852,-0.37828 h -1.01699 z"
           id="path18" />
        <path
           style="font-weight:bold;font-size:65%;-inkscape-font-specification:'Carlito Bold';baseline-shift:sub"
           d="m 113.90588,148.48508 z m 1.16489,-4.00254 v 4.00254 h -1.02381 v -4.00254 z m 0.12495,-1.14877 q 0,0.13302 -0.0524,0.24991 -0.0524,0.11286 -0.14107,0.20154 -0.0887,0.0846 -0.2096,0.13704 -0.12093,0.0484 -0.25394,0.0484 -0.12899,0 -0.24588,-0.0484 -0.11286,-0.0524 -0.20154,-0.13704 -0.0846,-0.0887 -0.13704,-0.20154 -0.0484,-0.11689 -0.0484,-0.24991 0,-0.13301 0.0484,-0.24991 0.0524,-0.11689 0.13704,-0.20153 0.0887,-0.0887 0.20154,-0.13705 0.11689,-0.0524 0.24588,-0.0524 0.13301,0 0.25394,0.0524 0.12092,0.0484 0.2096,0.13705 0.0887,0.0846 0.14107,0.20153 0.0524,0.1169 0.0524,0.24991 z"
           id="path19" />
      </g>
      <circle
         style="fill:#ff0000;stroke:#000000;stroke-width:0.466667;stroke-miterlimit:3.8;stroke-dasharray:none"
         id="path4-5-3"
         cx="103.96381"
         cy="124.02266"
         r="3.2666667" />
      <path
         id="path8"
         style="fill:#000000;stroke-width:0.722474;stroke-miterlimit:3.8"
         d="m 81.703024,122.3207 c -0.53584,-0.001 -1.0717,5.1e-4 -1.605071,5.1e-4 v 1.9079 c 4.266969,0 8.366563,0.0912 10.716142,1.51721 2.219449,1.34702 3.470828,4.21013 4.665349,7.35046 l -1.841232,0.97152 5.081344,3.19825 0.228926,-6.00015 -1.618506,0.85421 c -1.160748,-3.07731 -2.460039,-6.20653 -5.352128,-7.96179 -2.780822,-1.68773 -6.52395,-1.82918 -10.274824,-1.83812 z" />
      <g
         id="g12">
        <path
           style="fill:#ff0000;stroke-miterlimit:3.8"
           d="m 95.583984,78.240234 c -0.04528,11.365391 -0.09761,22.723996 0.66211,29.837896 0.759723,7.11389 2.417496,10.02022 3.957036,12.64648 l 1.7246,-1.01172 c -1.53953,-2.62626 -2.958826,-4.96967 -3.693355,-11.84766 -0.73453,-6.87798 -0.695671,-18.251792 -0.650391,-29.617183 z"
           id="path10" />
        <path
           sodipodi:type="star"
           style="fill:#ff0000;stroke:none;stroke-width:2;stroke-miterlimit:3.8;stroke-dasharray:none"
           id="path11"
           inkscape:flatsided="true"
           sodipodi:sides="3"
           sodipodi:cx="44.148438"
           sodipodi:cy="79.059662"
           sodipodi:r1="3.9604216"
           sodipodi:r2="1.9802108"
           sodipodi:arg1="0.5404195"
           sodipodi:arg2="1.5876171"
           inkscape:rounded="0"
           inkscape:randomized="0"
           d="M 47.544471,81.097282 40.68579,80.981903 44.215052,75.099801 Z"
           inkscape:transform-center-x="0.044426173"
           inkscape:transform-center-y="-1.282029"
           transform="matrix(1.3338933,0,0,1.3338933,37.627475,-27.041945)" />
      </g>
      <path
         id="path12"
         style="fill:#008000;stroke:#000000;stroke-width:0.5;stroke-miterlimit:3.8;stroke-dasharray:none"
         d="m 151.5308,90.227051 a 13.923738,13.448293 0 0 0 -2.42517,0.22996 3.2666667,3.2666667 0 0 1 -3.24115,2.908866 3.2666667,3.2666667 0 0 1 -2.1425,-0.800984 13.923738,13.448293 0 0 0 -6.11488,11.110437 13.923738,13.448293 0 0 0 13.9237,13.44827 13.923738,13.448293 0 0 0 13.9237,-13.44827 13.923738,13.448293 0 0 0 -6.32778,-11.267534 l -1.74201,1.836064 -3.2706,-0.785482 -0.92811,-3.132108 a 13.923738,13.448293 0 0 0 -1.6552,-0.09922 z" />
      <path
         sodipodi:type="star"
         style="fill:#d4aa00;stroke:#000000;stroke-width:0.5;stroke-miterlimit:3.8;stroke-dasharray:none"
         id="path13"
         inkscape:flatsided="true"
         sodipodi:sides="6"
         sodipodi:cx="158.79852"
         sodipodi:cy="56.238316"
         sodipodi:r1="3.3632736"
         sodipodi:r2="2.4252529"
         sodipodi:arg1="0.75683451"
         sodipodi:arg2="1.2804332"
         inkscape:rounded="0"
         inkscape:randomized="0"
         d="m 161.24367,58.547618 -3.22249,0.962906 -2.44514,-2.309303 0.77734,-3.272208 3.22249,-0.962906 2.44514,2.309303 z" />
      <circle
         style="fill:#ff0000;stroke:#000000;stroke-width:0.466667;stroke-miterlimit:3.8;stroke-dasharray:none"
         id="path4-5-3-5"
         cx="96.78875"
         cy="152.14989"
         r="3.2666667" />
      <circle
         style="fill:#ff0000;stroke:#000000;stroke-width:0.466667;stroke-miterlimit:3.8;stroke-dasharray:none"
         id="path4-5-3-6"
         cx="110.57815"
         cy="79.120621"
         r="3.2666667" />
      <circle
         style="fill:#ff0000;stroke:#000000;stroke-width:0.466667;stroke-miterlimit:3.8;stroke-dasharray:none"
         id="path4-5-3-5-0"
         cx="114.53341"
         cy="68.216423"
         r="3.2666667" />
      <circle
         style="fill:#ff0000;stroke:#000000;stroke-width:0.466667;stroke-miterlimit:3.8;stroke-dasharray:none"
         id="path4-5-3-6-6"
         cx="93.585968"
         cy="-55.134796"
         r="3.2666667"
         transform="rotate(59.451855)" />
      <circle
         style="fill:#ff0000;stroke:#000000;stroke-width:0.466667;stroke-miterlimit:3.8;stroke-dasharray:none"
         id="path4-5-3-5-0-5"
         cx="111.81687"
         cy="-51.742428"
         r="3.2666667"
         transform="rotate(59.451855)" />
      <circle
         style="fill:#ff0000;stroke:#000000;stroke-width:0.466667;stroke-miterlimit:3.8;stroke-dasharray:none"
         id="path4-5-3-6-0"
         cx="-32.179264"
         cy="107.60571"
         r="3.2666667"
         transform="rotate(-65.008402)" />
      <circle
         style="fill:#ff0000;stroke:#000000;stroke-width:0.466667;stroke-miterlimit:3.8;stroke-dasharray:none"
         id="path4-5-3-5-0-6"
         cx="-22.052805"
         cy="99.449448"
         r="3.2666667"
         transform="rotate(-65.008402)" />
      <circle
         style="fill:#ff0000;stroke:#000000;stroke-width:0.466667;stroke-miterlimit:3.8;stroke-dasharray:none"
         id="path4-5-3-6-9"
         cx="107.53095"
         cy="53.572487"
         r="3.2666667" />
      <circle
         style="fill:#ff0000;stroke:#000000;stroke-width:0.466667;stroke-miterlimit:3.8;stroke-dasharray:none"
         id="path4-5-3-5-0-3"
         cx="93.01178"
         cy="64.946274"
         r="3.2666667" />
      <circle
         style="fill:#ff0000;stroke:#000000;stroke-width:0.466667;stroke-miterlimit:3.8;stroke-dasharray:none"
         id="path4-5-3-6-06"
         cx="124.79318"
         cy="79.404594"
         r="3.2666667" />
      <circle
         style="fill:#ff0000;stroke:#000000;stroke-width:0.466667;stroke-miterlimit:3.8;stroke-dasharray:none"
         id="path4-5-3-6-63"
         cx="49.139847"
         cy="-130.24974"
         r="3.2666667"
         transform="rotate(95.392576)" />
      <circle
         style="fill:#ff0000;stroke:#000000;stroke-width:0.466667;stroke-miterlimit:3.8;stroke-dasharray:none"
         id="path4-5-3-5-0-7"
         cx="58.364632"
         cy="-145.26921"
         r="3.2666667"
         transform="rotate(95.392576)" />
      <circle
         style="fill:#ff0000;stroke:#000000;stroke-width:0.466667;stroke-miterlimit:3.8;stroke-dasharray:none"
         id="path4-5-3-6-91"
         cx="-107.53432"
         cy="102.42701"
         r="3.2666667"
         transform="rotate(-113.80702)" />
      <circle
         style="fill:#ff0000;stroke:#000000;stroke-width:0.466667;stroke-miterlimit:3.8;stroke-dasharray:none"
         id="path4-5-3-5-0-35"
         cx="-95.292732"
         cy="99.129929"
         r="3.2666667"
         transform="rotate(-113.80702)" />
      <circle
         style="fill:#ff0000;stroke:#000000;stroke-width:0.466667;stroke-miterlimit:3.8;stroke-dasharray:none"
         id="path4-5-3-6-61"
         cx="145.48895"
         cy="89.773041"
         r="3.2666667" />
      <circle
         style="fill:#ff0000;stroke:#000000;stroke-width:0.466667;stroke-miterlimit:3.8;stroke-dasharray:none"
         id="path4-5-3-5-0-54"
         cx="130.15474"
         cy="87.019325"
         r="3.2666667" />
      <circle
         style="fill:#ff0000;stroke:#000000;stroke-width:0.466667;stroke-miterlimit:3.8;stroke-dasharray:none"
         id="path4-5-3-5-0-7-2"
         cx="64.005104"
         cy="-177.18364"
         r="3.2666667"
         transform="rotate(95.392576)" />
      <circle
         style="fill:#ff0000;stroke:#000000;stroke-width:0.466667;stroke-miterlimit:3.8;stroke-dasharray:none"
         id="path4-5-3-6-3"
         cx="156.3766"
         cy="80.799461"
         r="3.2666667" />
      <circle
         style="fill:#ff0000;stroke:#000000;stroke-width:0.466667;stroke-miterlimit:3.8;stroke-dasharray:none"
         id="path4-5-3-5-0-72"
         cx="160.33186"
         cy="69.895264"
         r="3.2666667" />
      <circle
         style="fill:#ff0000;stroke:#000000;stroke-width:0.466667;stroke-miterlimit:3.8;stroke-dasharray:none"
         id="path4-5-3-5-0-7-6"
         cx="52.534843"
         cy="-187.30983"
         r="3.2666667"
         transform="rotate(95.392576)" />
      <path
         sodipodi:type="star"
         style="fill:#d4aa00;stroke:#000000;stroke-width:0.5;stroke-miterlimit:3.8;stroke-dasharray:none"
         id="path13-5"
         inkscape:flatsided="true"
         sodipodi:sides="6"
         sodipodi:cx="158.79852"
         sodipodi:cy="56.238316"
         sodipodi:r1="3.3632736"
         sodipodi:r2="2.4252529"
         sodipodi:arg1="0.75683451"
         sodipodi:arg2="1.2804332"
         inkscape:rounded="0"
         inkscape:randomized="0"
         d="m 161.24367,58.547618 -3.22249,0.962906 -2.44514,-2.309303 0.77734,-3.272208 3.22249,-0.962906 2.44514,2.309303 z"
         transform="translate(-29.046789,14.676057)" />
      <path
         sodipodi:type="star"
         style="fill:#d4aa00;stroke:#000000;stroke-width:0.5;stroke-miterlimit:3.8;stroke-dasharray:none"
         id="path13-1"
         inkscape:flatsided="true"
         sodipodi:sides="6"
         sodipodi:cx="158.79852"
         sodipodi:cy="56.238316"
         sodipodi:r1="3.3632736"
         sodipodi:r2="2.4252529"
         sodipodi:arg1="0.75683451"
         sodipodi:arg2="1.2804332"
         inkscape:rounded="0"
         inkscape:randomized="0"
         d="m 161.24367,58.547618 -3.22249,0.962906 -2.44514,-2.309303 0.77734,-3.272208 3.22249,-0.962906 2.44514,2.309303 z"
         transform="translate(-40.734867,28.541834)" />
      <path
         sodipodi:type="star"
         style="fill:#d4aa00;stroke:#000000;stroke-width:0.5;stroke-miterlimit:3.8;stroke-dasharray:none"
         id="path13-14"
         inkscape:flatsided="true"
         sodipodi:sides="6"
         sodipodi:cx="158.79852"
         sodipodi:cy="56.238316"
         sodipodi:r1="3.3632736"
         sodipodi:r2="2.4252529"
         sodipodi:arg1="0.75683451"
         sodipodi:arg2="1.2804332"
         inkscape:rounded="0"
         inkscape:randomized="0"
         d="m 161.24367,58.547618 -3.22249,0.962906 -2.44514,-2.309303 0.77734,-3.272208 3.22249,-0.962906 2.44514,2.309303 z"
         transform="translate(-25.27449,67.822764)" />
      <path
         sodipodi:type="star"
         style="fill:#d4aa00;stroke:#000000;stroke-width:0.5;stroke-miterlimit:3.8;stroke-dasharray:none"
         id="path13-17"
         inkscape:flatsided="true"
         sodipodi:sides="6"
         sodipodi:cx="158.79852"
         sodipodi:cy="56.238316"
         sodipodi:r1="3.3632736"
         sodipodi:r2="2.4252529"
         sodipodi:arg1="0.75683451"
         sodipodi:arg2="1.2804332"
         inkscape:rounded="0"
         inkscape:randomized="0"
         d="m 161.24367,58.547618 -3.22249,0.962906 -2.44514,-2.309303 0.77734,-3.272208 3.22249,-0.962906 2.44514,2.309303 z"
         transform="translate(-19.396862,77.79693)" />
      <path
         sodipodi:type="star"
         style="fill:#d4aa00;stroke:#000000;stroke-width:0.5;stroke-miterlimit:3.8;stroke-dasharray:none"
         id="path13-3"
         inkscape:flatsided="true"
         sodipodi:sides="6"
         sodipodi:cx="158.79852"
         sodipodi:cy="56.238316"
         sodipodi:r1="3.3632736"
         sodipodi:r2="2.4252529"
         sodipodi:arg1="0.75683451"
         sodipodi:arg2="1.2804332"
         inkscape:rounded="0"
         inkscape:randomized="0"
         d="m 161.24367,58.547618 -3.22249,0.962906 -2.44514,-2.309303 0.77734,-3.272208 3.22249,-0.962906 2.44514,2.309303 z"
         transform="rotate(46.686084,72.933537,90.964124)" />
      <path
         sodipodi:type="star"
         style="fill:#d4aa00;stroke:#000000;stroke-width:0.5;stroke-miterlimit:3.8;stroke-dasharray:none"
         id="path13-14-9"
         inkscape:flatsided="true"
         sodipodi:sides="6"
         sodipodi:cx="158.79852"
         sodipodi:cy="56.238316"
         sodipodi:r1="3.3632736"
         sodipodi:r2="2.4252529"
         sodipodi:arg1="0.75683451"
         sodipodi:arg2="1.2804332"
         inkscape:rounded="0"
         inkscape:randomized="0"
         d="m 161.24367,58.547618 -3.22249,0.962906 -2.44514,-2.309303 0.77734,-3.272208 3.22249,-0.962906 2.44514,2.309303 z"
         transform="translate(-36.966276,76.466917)" />
      <path
         sodipodi:type="star"
         style="fill:#d4aa00;stroke:#000000;stroke-width:0.5;stroke-miterlimit:3.8;stroke-dasharray:none"
         id="path13-17-8"
         inkscape:flatsided="true"
         sodipodi:sides="6"
         sodipodi:cx="158.79852"
         sodipodi:cy="56.238316"
         sodipodi:r1="3.3632736"
         sodipodi:r2="2.4252529"
         sodipodi:arg1="0.75683451"
         sodipodi:arg2="1.2804332"
         inkscape:rounded="0"
         inkscape:randomized="0"
         d="m 161.24367,58.547618 -3.22249,0.962906 -2.44514,-2.309303 0.77734,-3.272208 3.22249,-0.962906 2.44514,2.309303 z"
         transform="translate(-31.088648,86.441083)" />
      <path
         sodipodi:type="star"
         style="fill:#d4aa00;stroke:#000000;stroke-width:0.5;stroke-miterlimit:3.8;stroke-dasharray:none"
         id="path13-3-1"
         inkscape:flatsided="true"
         sodipodi:sides="6"
         sodipodi:cx="158.79852"
         sodipodi:cy="56.238316"
         sodipodi:r1="3.3632736"
         sodipodi:r2="2.4252529"
         sodipodi:arg1="0.75683451"
         sodipodi:arg2="1.2804332"
         inkscape:rounded="0"
         inkscape:randomized="0"
         d="m 161.24367,58.547618 -3.22249,0.962906 -2.44514,-2.309303 0.77734,-3.272208 3.22249,-0.962906 2.44514,2.309303 z"
         transform="rotate(46.686084,48.027192,82.843394)" />
      <path
         sodipodi:type="star"
         style="fill:#d4aa00;stroke:#000000;stroke-width:0.5;stroke-miterlimit:3.8;stroke-dasharray:none"
         id="path13-14-6"
         inkscape:flatsided="true"
         sodipodi:sides="6"
         sodipodi:cx="158.79852"
         sodipodi:cy="56.238316"
         sodipodi:r1="3.3632736"
         sodipodi:r2="2.4252529"
         sodipodi:arg1="0.75683451"
         sodipodi:arg2="1.2804332"
         inkscape:rounded="0"
         inkscape:randomized="0"
         d="m 161.24367,58.547618 -3.22249,0.962906 -2.44514,-2.309303 0.77734,-3.272208 3.22249,-0.962906 2.44514,2.309303 z"
         transform="rotate(164.61588,161.00049,99.512878)" />
      <path
         sodipodi:type="star"
         style="fill:#d4aa00;stroke:#000000;stroke-width:0.5;stroke-miterlimit:3.8;stroke-dasharray:none"
         id="path13-17-0"
         inkscape:flatsided="true"
         sodipodi:sides="6"
         sodipodi:cx="158.79852"
         sodipodi:cy="56.238316"
         sodipodi:r1="3.3632736"
         sodipodi:r2="2.4252529"
         sodipodi:arg1="0.75683451"
         sodipodi:arg2="1.2804332"
         inkscape:rounded="0"
         inkscape:randomized="0"
         d="m 161.24367,58.547618 -3.22249,0.962906 -2.44514,-2.309303 0.77734,-3.272208 3.22249,-0.962906 2.44514,2.309303 z"
         transform="rotate(164.61588,157.3881,94.922724)" />
      <path
         sodipodi:type="star"
         style="fill:#d4aa00;stroke:#000000;stroke-width:0.5;stroke-miterlimit:3.8;stroke-dasharray:none"
         id="path13-3-3"
         inkscape:flatsided="true"
         sodipodi:sides="6"
         sodipodi:cx="158.79852"
         sodipodi:cy="56.238316"
         sodipodi:r1="3.3632736"
         sodipodi:r2="2.4252529"
         sodipodi:arg1="0.75683451"
         sodipodi:arg2="1.2804332"
         inkscape:rounded="0"
         inkscape:randomized="0"
         d="m 161.24367,58.547618 -3.22249,0.962906 -2.44514,-2.309303 0.77734,-3.272208 3.22249,-0.962906 2.44514,2.309303 z"
         transform="rotate(-148.69803,166.467,97.768646)" />
      <path
         sodipodi:type="star"
         style="fill:#d4aa00;stroke:#000000;stroke-width:0.5;stroke-miterlimit:3.8;stroke-dasharray:none"
         id="path13-2"
         inkscape:flatsided="true"
         sodipodi:sides="6"
         sodipodi:cx="158.79852"
         sodipodi:cy="56.238316"
         sodipodi:r1="3.3632736"
         sodipodi:r2="2.4252529"
         sodipodi:arg1="0.75683451"
         sodipodi:arg2="1.2804332"
         inkscape:rounded="0"
         inkscape:randomized="0"
         d="m 161.24367,58.547618 -3.22249,0.962906 -2.44514,-2.309303 0.77734,-3.272208 3.22249,-0.962906 2.44514,2.309303 z"
         transform="rotate(30.333241,94.130252,69.303172)" />
      <circle
         style="fill:#ff0000;stroke:#000000;stroke-width:0.466667;stroke-miterlimit:3.8;stroke-dasharray:none"
         id="path4-5-3-5-4"
         cx="146.90417"
         cy="126.79583"
         r="3.2666667" />
      <path
         id="path14-1"
         style="fill:#d4aa00;stroke:#d4aa00;stroke-width:0.5;stroke-miterlimit:3.8;stroke-dasharray:none"
         d="m 155.38121,94.515678 c -1.44897,4.12052 -2.94406,8.339102 -3.17965,13.027622 -0.19987,3.97761 0.50906,8.14912 1.33636,12.30881 l -1.10795,0.24753 1.48208,1.61127 c 0.0251,0.12306 0.0499,0.24651 0.0749,0.36949 l 0.22273,-0.0455 1.18752,1.29088 0.51315,-1.63866 0.0357,-0.007 c -0.004,-0.0216 -0.009,-0.043 -0.0129,-0.0646 l 0.77411,-2.4722 -1.21595,0.27182 c -0.81081,-4.10622 -1.47494,-8.11754 -1.29139,-11.77034 0.21719,-4.32239 1.61957,-8.34435 3.06855,-12.464869 z" />
      <path
         id="path14-1-6"
         style="fill:#ff0000;stroke:#ff0000;stroke-width:0.5;stroke-miterlimit:3.8;stroke-dasharray:none"
         d="m 147.70937,93.754145 c 1.44897,4.12052 2.94406,8.339095 3.17965,13.027615 0.19987,3.97761 -0.50906,8.14912 -1.33636,12.30881 l 1.10795,0.24753 -1.48208,1.61127 c -0.0251,0.12306 -0.0499,0.24651 -0.0749,0.36949 l -0.22273,-0.0455 -1.18752,1.29088 -0.51315,-1.63866 -0.0357,-0.007 c 0.004,-0.0216 0.009,-0.043 0.0129,-0.0646 l -0.77411,-2.4722 1.21595,0.27182 c 0.81081,-4.10622 1.47494,-8.11754 1.29139,-11.77034 -0.21719,-4.32239 -1.61957,-8.344345 -3.06855,-12.464865 z" />
      <path
         sodipodi:type="star"
         style="fill:#d4aa00;stroke:#000000;stroke-width:0.5;stroke-miterlimit:3.8;stroke-dasharray:none"
         id="path13-5-1"
         inkscape:flatsided="true"
         sodipodi:sides="6"
         sodipodi:cx="158.79852"
         sodipodi:cy="56.238316"
         sodipodi:r1="3.3632736"
         sodipodi:r2="2.4252529"
         sodipodi:arg1="0.75683451"
         sodipodi:arg2="1.2804332"
         inkscape:rounded="0"
         inkscape:randomized="0"
         d="m 161.24367,58.547618 -3.22249,0.962906 -2.44514,-2.309303 0.77734,-3.272208 3.22249,-0.962906 2.44514,2.309303 z"
         transform="translate(-79.264641,28.779399)" />
      <path
         sodipodi:type="star"
         style="fill:#d4aa00;stroke:#000000;stroke-width:0.5;stroke-miterlimit:3.8;stroke-dasharray:none"
         id="path13-5-4"
         inkscape:flatsided="true"
         sodipodi:sides="6"
         sodipodi:cx="158.79852"
         sodipodi:cy="56.238316"
         sodipodi:r1="3.3632736"
         sodipodi:r2="2.4252529"
         sodipodi:arg1="0.75683451"
         sodipodi:arg2="1.2804332"
         inkscape:rounded="0"
         inkscape:randomized="0"
         d="m 161.24367,58.547618 -3.22249,0.962906 -2.44514,-2.309303 0.77734,-3.272208 3.22249,-0.962906 2.44514,2.309303 z"
         transform="translate(-41.328456,-3.1158731)" />
      <circle
         style="fill:#ff0000;stroke:#000000;stroke-width:0.466667;stroke-miterlimit:3.8;stroke-dasharray:none"
         id="path4-5-3-5-9"
         cx="80.96093"
         cy="130.64771"
         r="3.2666667" />
      <path
         sodipodi:type="star"
         style="fill:#d4aa00;stroke:#000000;stroke-width:0.5;stroke-miterlimit:3.8;stroke-dasharray:none"
         id="path13-17-8-8"
         inkscape:flatsided="true"
         sodipodi:sides="6"
         sodipodi:cx="158.79852"
         sodipodi:cy="56.238316"
         sodipodi:r1="3.3632736"
         sodipodi:r2="2.4252529"
         sodipodi:arg1="0.75683451"
         sodipodi:arg2="1.2804332"
         inkscape:rounded="0"
         inkscape:randomized="0"
         d="m 161.24367,58.547618 -3.22249,0.962906 -2.44514,-2.309303 0.77734,-3.272208 3.22249,-0.962906 2.44514,2.309303 z"
         transform="translate(-90.898678,78.429305)" />
      <path
         sodipodi:type="star"
         style="fill:#d4aa00;stroke:#000000;stroke-width:0.5;stroke-miterlimit:3.8;stroke-dasharray:none"
         id="path13-17-8-3"
         inkscape:flatsided="true"
         sodipodi:sides="6"
         sodipodi:cx="158.79852"
         sodipodi:cy="56.238316"
         sodipodi:r1="3.3632736"
         sodipodi:r2="2.4252529"
         sodipodi:arg1="0.75683451"
         sodipodi:arg2="1.2804332"
         inkscape:rounded="0"
         inkscape:randomized="0"
         d="m 161.24367,58.547618 -3.22249,0.962906 -2.44514,-2.309303 0.77734,-3.272208 3.22249,-0.962906 2.44514,2.309303 z"
         transform="translate(-32.663007,64.287606)" />
      <path
         style="fill:#b3ff80;stroke:#000000;stroke-width:0.499999;stroke-miterlimit:3.8;stroke-dasharray:none"
         d="M 187.44685,133.86661 192.8805,77.084974 H 182.28488 Z"
         id="path17" />
      <circle
         style="fill:#ff0000;stroke:#000000;stroke-width:0.166217;stroke-miterlimit:3.8;stroke-dasharray:none"
         id="path4-5-3-5-0-7-6-1"
         cx="61.45303"
         cy="-191.77049"
         r="1.1635209"
         transform="rotate(95.392576)" />
      <circle
         style="fill:#ff0000;stroke:#000000;stroke-width:0.166217;stroke-miterlimit:3.8;stroke-dasharray:none"
         id="path4-5-3-5-0-7-6-1-4"
         cx="61.000206"
         cy="-194.76547"
         r="1.1635209"
         transform="rotate(95.392576)" />
      <circle
         style="fill:#ff0000;stroke:#000000;stroke-width:0.166217;stroke-miterlimit:3.8;stroke-dasharray:none"
         id="path4-5-3-5-0-7-6-1-4-1"
         cx="60.715961"
         cy="-197.77637"
         r="1.1635209"
         transform="rotate(95.392576)" />
      <circle
         style="fill:#ff0000;stroke:#000000;stroke-width:0.166217;stroke-miterlimit:3.8;stroke-dasharray:none"
         id="path4-5-3-5-0-7-6-1-4-6"
         cx="64.373993"
         cy="-192.33507"
         r="1.1635209"
         transform="rotate(95.392576)" />
      <circle
         style="fill:#ff0000;stroke:#000000;stroke-width:0.166217;stroke-miterlimit:3.8;stroke-dasharray:none"
         id="path4-5-3-5-0-7-6-1-4-1-8"
         cx="63.957249"
         cy="-195.80122"
         r="1.1635209"
         transform="rotate(95.392576)" />
      <circle
         style="fill:#ff0000;stroke:#000000;stroke-width:0.166217;stroke-miterlimit:3.8;stroke-dasharray:none"
         id="path4-5-3-5-0-7-6-1-4-1-8-4"
         cx="68.315414"
         cy="-193.67914"
         r="1.1635209"
         transform="rotate(95.392576)" />
      <circle
         style="fill:#ff0000;stroke:#000000;stroke-width:0.166217;stroke-miterlimit:3.8;stroke-dasharray:none"
         id="path4-5-3-5-0-7-6-1-4-1-8-5"
         cx="66.686836"
         cy="-196.98154"
         r="1.1635209"
         transform="rotate(95.392576)" />
      <circle
         style="fill:#ff0000;stroke:#000000;stroke-width:0.166217;stroke-miterlimit:3.8;stroke-dasharray:none"
         id="path4-5-3-5-0-7-6-1-4-1-8-3"
         cx="71.938553"
         cy="-193.37283"
         r="1.1635209"
         transform="rotate(95.392576)" />
      <circle
         style="fill:#ff0000;stroke:#000000;stroke-width:0.166217;stroke-miterlimit:3.8;stroke-dasharray:none"
         id="path4-5-3-5-0-7-6-1-4-1-8-8"
         cx="81.663292"
         cy="-194.95708"
         r="1.1635209"
         transform="rotate(95.392576)" />
      <circle
         style="fill:#ff0000;stroke:#000000;stroke-width:0.166217;stroke-miterlimit:3.8;stroke-dasharray:none"
         id="path4-5-3-5-0-7-6-1-4-1-8-0"
         cx="98.914604"
         cy="-197.60605"
         r="1.1635209"
         transform="rotate(95.392576)" />
      <circle
         style="fill:#ff0000;stroke:#000000;stroke-width:0.166217;stroke-miterlimit:3.8;stroke-dasharray:none"
         id="path4-5-3-5-0-7-6-1-4-1-8-9"
         cx="90.531693"
         cy="-196.76056"
         r="1.1635209"
         transform="rotate(95.392576)" />
      <circle
         style="fill:#ff0000;stroke:#000000;stroke-width:0.166217;stroke-miterlimit:3.8;stroke-dasharray:none"
         id="path4-5-3-5-0-7-6-1-4-1-8-3-2"
         cx="74.520164"
         cy="-197.48099"
         r="1.1635209"
         transform="rotate(95.392576)" />
      <path
         style="fill:#b3ff80;stroke:#000000;stroke-width:0.499999;stroke-miterlimit:3.8;stroke-dasharray:none"
         d="m 197.35538,77.031907 5.43365,56.781643 h -10.59562 z"
         id="path17-8" />
      <path
         sodipodi:type="star"
         style="fill:#d4aa00;stroke:#000000;stroke-width:0.5;stroke-miterlimit:3.8;stroke-dasharray:none"
         id="path13-14-6-8"
         inkscape:flatsided="true"
         sodipodi:sides="6"
         sodipodi:cx="158.79852"
         sodipodi:cy="56.238316"
         sodipodi:r1="3.3632736"
         sodipodi:r2="2.4252529"
         sodipodi:arg1="0.75683451"
         sodipodi:arg2="1.2804332"
         inkscape:rounded="0"
         inkscape:randomized="0"
         d="m 161.24367,58.547618 -3.22249,0.962906 -2.44514,-2.309303 0.77734,-3.272208 3.22249,-0.962906 2.44514,2.309303 z"
         transform="matrix(-0.27790799,0.26745414,-0.26745414,-0.27790799,253.66625,105.00194)" />
      <path
         sodipodi:type="star"
         style="fill:#d4aa00;stroke:#000000;stroke-width:0.5;stroke-miterlimit:3.8;stroke-dasharray:none"
         id="path13-14-6-6"
         inkscape:flatsided="true"
         sodipodi:sides="6"
         sodipodi:cx="158.79852"
         sodipodi:cy="56.238316"
         sodipodi:r1="3.3632736"
         sodipodi:r2="2.4252529"
         sodipodi:arg1="0.75683451"
         sodipodi:arg2="1.2804332"
         inkscape:rounded="0"
         inkscape:randomized="0"
         d="m 161.24367,58.547618 -3.22249,0.962906 -2.44514,-2.309303 0.77734,-3.272208 3.22249,-0.962906 2.44514,2.309303 z"
         transform="rotate(164.61588,164.11764,90.665285)" />
      <path
         sodipodi:type="star"
         style="fill:#d4aa00;stroke:#000000;stroke-width:0.5;stroke-miterlimit:3.8;stroke-dasharray:none"
         id="path13-14-6-8-2"
         inkscape:flatsided="true"
         sodipodi:sides="6"
         sodipodi:cx="158.79852"
         sodipodi:cy="56.238316"
         sodipodi:r1="3.3632736"
         sodipodi:r2="2.4252529"
         sodipodi:arg1="0.75683451"
         sodipodi:arg2="1.2804332"
         inkscape:rounded="0"
         inkscape:randomized="0"
         d="m 161.24367,58.547618 -3.22249,0.962906 -2.44514,-2.309303 0.77734,-3.272208 3.22249,-0.962906 2.44514,2.309303 z"
         transform="matrix(0.36726523,0.1178169,-0.1178169,0.36726523,145.41332,92.530697)" />
      <path
         sodipodi:type="star"
         style="fill:#d4aa00;stroke:#000000;stroke-width:0.5;stroke-miterlimit:3.8;stroke-dasharray:none"
         id="path13-14-6-8-26"
         inkscape:flatsided="true"
         sodipodi:sides="6"
         sodipodi:cx="158.79852"
         sodipodi:cy="56.238316"
         sodipodi:r1="3.3632736"
         sodipodi:r2="2.4252529"
         sodipodi:arg1="0.75683451"
         sodipodi:arg2="1.2804332"
         inkscape:rounded="0"
         inkscape:randomized="0"
         d="m 161.24367,58.547618 -3.22249,0.962906 -2.44514,-2.309303 0.77734,-3.272208 3.22249,-0.962906 2.44514,2.309303 z"
         transform="matrix(-0.27790799,0.26745414,-0.26745414,-0.27790799,258.84926,105.00359)"
         inkscape:transform-center-x="0.37453369"
         inkscape:transform-center-y="-2.8464306" />
      <path
         sodipodi:type="star"
         style="fill:#d4aa00;stroke:#000000;stroke-width:0.5;stroke-miterlimit:3.8;stroke-dasharray:none"
         id="path13-14-6-8-24"
         inkscape:flatsided="true"
         sodipodi:sides="6"
         sodipodi:cx="158.79852"
         sodipodi:cy="56.238316"
         sodipodi:r1="3.3632736"
         sodipodi:r2="2.4252529"
         sodipodi:arg1="0.75683451"
         sodipodi:arg2="1.2804332"
         inkscape:rounded="0"
         inkscape:randomized="0"
         d="m 161.24367,58.547618 -3.22249,0.962906 -2.44514,-2.309303 0.77734,-3.272208 3.22249,-0.962906 2.44514,2.309303 z"
         transform="matrix(-0.37978581,0.0672851,-0.0672851,-0.37978581,259.154,139.03759)" />
      <path
         sodipodi:type="star"
         style="fill:#d4aa00;stroke:#000000;stroke-width:0.5;stroke-miterlimit:3.8;stroke-dasharray:none"
         id="path13-14-6-8-21"
         inkscape:flatsided="true"
         sodipodi:sides="6"
         sodipodi:cx="158.79852"
         sodipodi:cy="56.238316"
         sodipodi:r1="3.3632736"
         sodipodi:r2="2.4252529"
         sodipodi:arg1="0.75683451"
         sodipodi:arg2="1.2804332"
         inkscape:rounded="0"
         inkscape:randomized="0"
         d="m 161.24367,58.547618 -3.22249,0.962906 -2.44514,-2.309303 0.77734,-3.272208 3.22249,-0.962906 2.44514,2.309303 z"
         transform="matrix(0.03707755,0.38391381,-0.38391381,0.03707755,213.58476,65.709855)" />
      <path
         sodipodi:type="star"
         style="fill:#d4aa00;stroke:#000000;stroke-width:0.5;stroke-miterlimit:3.8;stroke-dasharray:none"
         id="path13-14-6-8-24-6"
         inkscape:flatsided="true"
         sodipodi:sides="6"
         sodipodi:cx="158.79852"
         sodipodi:cy="56.238316"
         sodipodi:r1="3.3632736"
         sodipodi:r2="2.4252529"
         sodipodi:arg1="0.75683451"
         sodipodi:arg2="1.2804332"
         inkscape:rounded="0"
         inkscape:randomized="0"
         d="m 161.24367,58.547618 -3.22249,0.962906 -2.44514,-2.309303 0.77734,-3.272208 3.22249,-0.962906 2.44514,2.309303 z"
         transform="matrix(-0.37978581,0.0672851,-0.0672851,-0.37978581,264.21894,135.01451)" />
      <path
         sodipodi:type="star"
         style="fill:#d4aa00;stroke:#000000;stroke-width:0.5;stroke-miterlimit:3.8;stroke-dasharray:none"
         id="path13-14-6-8-24-2"
         inkscape:flatsided="true"
         sodipodi:sides="6"
         sodipodi:cx="158.79852"
         sodipodi:cy="56.238316"
         sodipodi:r1="3.3632736"
         sodipodi:r2="2.4252529"
         sodipodi:arg1="0.75683451"
         sodipodi:arg2="1.2804332"
         inkscape:rounded="0"
         inkscape:randomized="0"
         d="m 161.24367,58.547618 -3.22249,0.962906 -2.44514,-2.309303 0.77734,-3.272208 3.22249,-0.962906 2.44514,2.309303 z"
         transform="matrix(-0.37978581,0.0672851,-0.0672851,-0.37978581,262.45199,122.14954)" />
      <path
         sodipodi:type="star"
         style="fill:#d4aa00;stroke:#000000;stroke-width:0.5;stroke-miterlimit:3.8;stroke-dasharray:none"
         id="path13-14-6-8-24-9"
         inkscape:flatsided="true"
         sodipodi:sides="6"
         sodipodi:cx="158.79852"
         sodipodi:cy="56.238316"
         sodipodi:r1="3.3632736"
         sodipodi:r2="2.4252529"
         sodipodi:arg1="0.75683451"
         sodipodi:arg2="1.2804332"
         inkscape:rounded="0"
         inkscape:randomized="0"
         d="m 161.24367,58.547618 -3.22249,0.962906 -2.44514,-2.309303 0.77734,-3.272208 3.22249,-0.962906 2.44514,2.309303 z"
         transform="matrix(-0.37978581,0.0672851,-0.0672851,-0.37978581,261.94194,110.64121)" />
      <path
         sodipodi:type="star"
         style="fill:#d4aa00;stroke:#000000;stroke-width:0.5;stroke-miterlimit:3.8;stroke-dasharray:none"
         id="path13-14-6-8-24-95"
         inkscape:flatsided="true"
         sodipodi:sides="6"
         sodipodi:cx="158.79852"
         sodipodi:cy="56.238316"
         sodipodi:r1="3.3632736"
         sodipodi:r2="2.4252529"
         sodipodi:arg1="0.75683451"
         sodipodi:arg2="1.2804332"
         inkscape:rounded="0"
         inkscape:randomized="0"
         d="m 161.24367,58.547618 -3.22249,0.962906 -2.44514,-2.309303 0.77734,-3.272208 3.22249,-0.962906 2.44514,2.309303 z"
         transform="matrix(-0.37681415,0.0823144,-0.0823144,-0.37681415,261.77174,100.66446)" />
      <path
         sodipodi:type="star"
         style="fill:#d4aa00;stroke:#000000;stroke-width:0.5;stroke-miterlimit:3.8;stroke-dasharray:none"
         id="path13-14-6-8-24-6-2"
         inkscape:flatsided="true"
         sodipodi:sides="6"
         sodipodi:cx="158.79852"
         sodipodi:cy="56.238316"
         sodipodi:r1="3.3632736"
         sodipodi:r2="2.4252529"
         sodipodi:arg1="0.75683451"
         sodipodi:arg2="1.2804332"
         inkscape:rounded="0"
         inkscape:randomized="0"
         d="m 161.24367,58.547618 -3.22249,0.962906 -2.44514,-2.309303 0.77734,-3.272208 3.22249,-0.962906 2.44514,2.309303 z"
         transform="matrix(-0.37978581,0.0672851,-0.0672851,-0.37978581,260.59528,131.0649)" />
      <path
         style="font-size:6.35px;line-height:1;font-family:Carlito;-inkscape-font-specification:Carlito;letter-spacing:0px;fill:#000080;stroke-width:0.5;stroke-miterlimit:3.8"
         d="m 183.93058,136.00817 q 0.18913,0 0.35347,0.0434 0.16433,0.0434 0.29765,0.12403 h 0.79375 v 0.20154 q 0,0.10852 -0.12402,0.12712 l -0.32246,0.0465 q 0.0961,0.19844 0.0961,0.43408 0,0.22324 -0.0837,0.40308 -0.0806,0.17983 -0.22634,0.30696 -0.14573,0.12712 -0.34727,0.19843 -0.19844,0.0682 -0.43718,0.0682 -0.19844,0 -0.36587,-0.0465 -0.0899,0.0589 -0.13333,0.12712 -0.0434,0.0651 -0.0434,0.13023 0,0.10852 0.0837,0.16123 0.0837,0.0527 0.22014,0.0775 0.13643,0.0248 0.31006,0.031 0.17363,0.006 0.35347,0.0217 0.18293,0.0124 0.35657,0.0434 0.17363,0.031 0.31005,0.10852 0.13643,0.0744 0.22015,0.20774 0.0837,0.13022 0.0837,0.34106 0,0.19534 -0.093,0.37827 -0.093,0.18294 -0.26975,0.32557 -0.17363,0.14262 -0.42788,0.22634 -0.25114,0.0868 -0.5705,0.0868 -0.31937,0 -0.55811,-0.0651 -0.23875,-0.0651 -0.39688,-0.17673 -0.15813,-0.11162 -0.23564,-0.25735 -0.0775,-0.14573 -0.0775,-0.30386 0,-0.22324 0.13022,-0.37827 0.13333,-0.15503 0.36587,-0.24494 -0.12712,-0.0589 -0.20154,-0.16123 -0.0744,-0.10232 -0.0744,-0.27286 0,-0.13022 0.093,-0.27595 0.093,-0.14573 0.27906,-0.24184 -0.21394,-0.12713 -0.33797,-0.33487 -0.12092,-0.20774 -0.12092,-0.48369 0,-0.22324 0.0806,-0.40308 0.0837,-0.17983 0.22944,-0.30695 0.14573,-0.13023 0.34726,-0.19844 0.20154,-0.0682 0.44339,-0.0682 z m 0.89297,3.24631 q 0,-0.10852 -0.0589,-0.17673 -0.0558,-0.0682 -0.15503,-0.10542 -0.0992,-0.0403 -0.22945,-0.0558 -0.13022,-0.0186 -0.27595,-0.0279 -0.14573,-0.009 -0.29765,-0.0155 -0.14883,-0.006 -0.28836,-0.0279 -0.15193,0.0806 -0.24805,0.19534 -0.0961,0.11162 -0.0961,0.26975 0,0.10232 0.0465,0.18914 0.0465,0.0868 0.14263,0.14882 0.0992,0.0651 0.25115,0.10232 0.15193,0.0372 0.35967,0.0372 0.20464,0 0.36277,-0.0403 0.15813,-0.0403 0.26665,-0.11162 0.10852,-0.0682 0.16433,-0.16743 0.0558,-0.0961 0.0558,-0.21394 z m -0.89297,-1.65261 q 0.30076,0 0.45268,-0.16743 0.15503,-0.16744 0.15503,-0.43719 0,-0.27595 -0.15503,-0.43718 -0.15192,-0.16433 -0.45268,-0.16433 -0.29456,0 -0.44959,0.16433 -0.15193,0.16123 -0.15193,0.43718 0,0.13333 0.0372,0.24495 0.0403,0.10852 0.11472,0.18914 0.0775,0.0806 0.18914,0.12712 0.11472,0.0434 0.26045,0.0434 z m 1.96267,1.48828 v -3.03237 h 0.31316 q 0.0868,0 0.12092,0.0341 0.0372,0.0341 0.0434,0.11472 l 0.0372,0.44649 q 0.13952,-0.30076 0.34416,-0.47439 0.20464,-0.17363 0.49299,-0.17363 0.0961,0 0.17984,0.0217 0.0837,0.0186 0.15193,0.0651 l -0.0434,0.40308 q -0.009,0.0775 -0.0868,0.0775 -0.0434,0 -0.12402,-0.0155 -0.0775,-0.0186 -0.17363,-0.0186 -0.13953,0 -0.24805,0.0434 -0.10542,0.0403 -0.19224,0.12403 -0.0837,0.0806 -0.14882,0.19844 -0.0651,0.11782 -0.12093,0.26975 v 1.91616 z m 4.08657,0 q -0.0806,0 -0.12402,-0.0248 -0.0434,-0.0248 -0.0589,-0.10232 l -0.0682,-0.28215 q -0.11782,0.10852 -0.23254,0.19534 -0.11162,0.0837 -0.23564,0.14263 -0.12403,0.0589 -0.26665,0.0868 -0.14263,0.031 -0.31316,0.031 -0.17674,0 -0.33177,-0.0465 -0.15193,-0.0496 -0.26975,-0.14883 -0.11472,-0.10232 -0.18293,-0.25115 -0.0651,-0.15193 -0.0651,-0.35656 0,-0.17984 0.0961,-0.34417 0.0992,-0.16743 0.31936,-0.29766 0.22015,-0.13022 0.57361,-0.21084 0.35347,-0.0837 0.86817,-0.0961 v -0.23255 q 0,-0.35346 -0.15193,-0.5302 -0.14883,-0.17983 -0.43718,-0.17983 -0.19224,0 -0.32557,0.0496 -0.13022,0.0496 -0.22634,0.10852 -0.0961,0.0589 -0.16743,0.10852 -0.0682,0.0496 -0.13953,0.0496 -0.0558,0 -0.0961,-0.0279 -0.0403,-0.0279 -0.0651,-0.0713 l -0.0992,-0.17363 q 0.25115,-0.24185 0.53951,-0.35967 0.29145,-0.12092 0.64492,-0.12092 0.25425,0 0.45268,0.0837 0.19844,0.0806 0.33177,0.23255 0.13332,0.15192 0.20153,0.36276 0.0713,0.21084 0.0713,0.46819 v 1.93787 z m -1.13481,-0.33486 q 0.13642,0 0.25114,-0.0279 0.11473,-0.0279 0.21705,-0.0775 0.10231,-0.0527 0.19223,-0.12713 0.093,-0.0775 0.18294,-0.17053 v -0.62632 q -0.36277,0.0155 -0.61702,0.062 -0.25425,0.0434 -0.41548,0.11783 -0.15813,0.0744 -0.22944,0.17673 -0.0713,0.0992 -0.0713,0.22324 0,0.11782 0.0372,0.20464 0.0403,0.0837 0.10542,0.13953 0.0651,0.0527 0.15503,0.0806 0.0899,0.0248 0.19224,0.0248 z m 4.33152,0.33486 q -0.0589,0 -0.0961,-0.0248 -0.0372,-0.0279 -0.0434,-0.0868 l -0.0558,-0.36277 q -0.19224,0.23254 -0.43718,0.37517 -0.24495,0.14263 -0.56741,0.14263 -0.25735,0 -0.46819,-0.0992 -0.20774,-0.10232 -0.35657,-0.29766 -0.14883,-0.19533 -0.22944,-0.48369 -0.0806,-0.29145 -0.0806,-0.66973 0,-0.33486 0.0868,-0.62321 0.0899,-0.29146 0.25735,-0.5023 0.16743,-0.21084 0.40618,-0.33176 0.24184,-0.12092 0.5457,-0.12092 0.27595,0 0.47129,0.093 0.19534,0.0899 0.34726,0.26045 v -1.67741 h 0.54571 v 4.40903 z m -1.0232,-0.39378 q 0.25735,0 0.44649,-0.11782 0.19223,-0.12092 0.35656,-0.33486 v -1.46658 q -0.14572,-0.19534 -0.31626,-0.27285 -0.17053,-0.0806 -0.37827,-0.0806 -0.41238,0 -0.63562,0.30075 -0.22324,0.30076 -0.22324,0.85886 0,0.29456 0.0496,0.5054 0.0527,0.21084 0.14883,0.34727 0.0961,0.13332 0.23564,0.19843 0.13953,0.062 0.31626,0.062 z m 2.13631,0.39378 z m 0.66042,-3.03237 v 3.03237 h -0.5457 v -3.03237 z m 0.10542,-0.94878 q 0,0.0775 -0.031,0.14882 -0.031,0.0682 -0.0868,0.12093 -0.0527,0.0496 -0.12402,0.0806 -0.0682,0.031 -0.14573,0.031 -0.0775,0 -0.14573,-0.031 -0.0682,-0.031 -0.12092,-0.0806 -0.0496,-0.0527 -0.0806,-0.12093 -0.031,-0.0713 -0.031,-0.14882 0,-0.0806 0.031,-0.14883 0.031,-0.0713 0.0806,-0.12402 0.0527,-0.0527 0.12092,-0.0837 0.0682,-0.031 0.14573,-0.031 0.0775,0 0.14573,0.031 0.0713,0.031 0.12402,0.0837 0.0558,0.0527 0.0868,0.12402 0.031,0.0682 0.031,0.14883 z m 2.00918,0.90227 q 0.27285,0 0.5054,0.0899 0.23254,0.0899 0.40307,0.26355 0.17053,0.17364 0.26665,0.42478 0.0961,0.25115 0.0961,0.57671 0,0.12713 -0.0279,0.17054 -0.0279,0.0403 -0.10232,0.0403 h -2.02779 q 0.006,0.28526 0.0775,0.4992 0.0713,0.21084 0.19533,0.35036 0.12713,0.13953 0.30076,0.21084 0.17363,0.0682 0.38758,0.0682 0.19843,0 0.34416,-0.0434 0.14573,-0.0465 0.24805,-0.10232 0.10542,-0.0558 0.17673,-0.0992 0.0713,-0.0465 0.12402,-0.0465 0.0341,0 0.0589,0.0155 0.0248,0.0124 0.0434,0.0372 l 0.15503,0.19844 q -0.10232,0.12092 -0.24184,0.21084 -0.13643,0.0868 -0.29456,0.14573 -0.15813,0.0558 -0.32866,0.0837 -0.16743,0.0279 -0.33176,0.0279 -0.31626,0 -0.58291,-0.10542 -0.26665,-0.10542 -0.46199,-0.31006 -0.19224,-0.20774 -0.30076,-0.5085 -0.10852,-0.30385 -0.10852,-0.69763 0,-0.31626 0.0961,-0.58911 0.0992,-0.27595 0.28215,-0.47749 0.18604,-0.20464 0.44959,-0.31936 0.26665,-0.11472 0.59841,-0.11472 z m 0.009,0.39687 q -0.38137,0 -0.60461,0.22324 -0.22014,0.22325 -0.27595,0.61082 h 1.65261 q 0,-0.18293 -0.0527,-0.33486 -0.0527,-0.15503 -0.15193,-0.26355 -0.0992,-0.11162 -0.24495,-0.17364 -0.14262,-0.062 -0.32246,-0.062 z m 1.92547,2.68201 v -3.03237 h 0.32556 q 0.0589,0 0.0961,0.0279 0.0372,0.0248 0.0434,0.0837 l 0.0465,0.32246 q 0.19534,-0.21704 0.43719,-0.34727 0.24184,-0.13332 0.5581,-0.13332 0.24805,0 0.43408,0.0837 0.18914,0.0806 0.31626,0.23255 0.12713,0.14883 0.19224,0.36277 0.0651,0.21084 0.0651,0.46818 v 1.93167 h -0.5457 v -1.93167 q 0,-0.33796 -0.15503,-0.5271 -0.15193,-0.18913 -0.46509,-0.18913 -0.23254,0 -0.43408,0.11162 -0.20154,0.10852 -0.36897,0.30386 v 2.23242 z m 4.13618,0.0465 q -0.35037,0 -0.5395,-0.20154 -0.18914,-0.20154 -0.18914,-0.57671 v -1.84795 h -0.34727 q -0.0465,0 -0.0806,-0.031 -0.031,-0.031 -0.031,-0.0899 v -0.21704 l 0.47749,-0.062 0.12713,-0.93328 q 0.006,-0.0465 0.0372,-0.0744 0.0341,-0.0279 0.0837,-0.0279 h 0.27905 v 1.0387 h 0.83406 v 0.39687 h -0.83406 v 1.81074 q 0,0.18604 0.0837,0.27906 0.0868,0.093 0.22324,0.093 0.0806,0 0.13643,-0.0217 0.0589,-0.0217 0.0992,-0.0496 0.0403,-0.0279 0.0682,-0.0496 0.031,-0.0217 0.0558,-0.0217 0.0279,0 0.0434,0.0124 0.0186,0.0124 0.0341,0.0403 l 0.16123,0.26045 q -0.13952,0.13022 -0.32866,0.20153 -0.18913,0.0713 -0.39377,0.0713 z m 2.93935,-2.57659 q -0.0372,0.0682 -0.11162,0.0682 -0.0465,0 -0.10232,-0.0341 -0.0527,-0.0341 -0.13022,-0.0713 -0.0744,-0.0403 -0.17984,-0.0744 -0.10232,-0.0341 -0.24494,-0.0341 -0.12092,0 -0.21704,0.0341 -0.0961,0.0341 -0.16433,0.093 -0.0682,0.0589 -0.10542,0.13952 -0.0372,0.0775 -0.0372,0.16744 0,0.11782 0.062,0.19533 0.062,0.0775 0.16433,0.13333 0.10232,0.0558 0.23255,0.10232 0.13332,0.0434 0.26975,0.0899 0.13642,0.0465 0.26665,0.10852 0.13332,0.062 0.23564,0.15193 0.10232,0.0899 0.16433,0.22014 0.062,0.12713 0.062,0.31006 0,0.21084 -0.0713,0.39068 -0.0713,0.17673 -0.21084,0.30695 -0.13642,0.13023 -0.34106,0.20464 -0.20154,0.0744 -0.46509,0.0744 -0.30076,0 -0.5488,-0.10232 -0.24495,-0.10232 -0.41548,-0.26665 l 0.12712,-0.20464 q 0.0248,-0.0403 0.0589,-0.062 0.0341,-0.0217 0.0868,-0.0217 0.0558,0 0.11162,0.0434 0.0558,0.0403 0.13332,0.093 0.0806,0.0496 0.19224,0.093 0.11162,0.0403 0.27905,0.0403 0.14263,0 0.24495,-0.0403 0.10542,-0.0403 0.17363,-0.10542 0.0682,-0.0682 0.10232,-0.15813 0.0341,-0.0899 0.0341,-0.18914 0,-0.12402 -0.0651,-0.20464 -0.062,-0.0837 -0.16434,-0.13952 -0.10231,-0.0589 -0.23564,-0.10232 -0.13022,-0.0434 -0.26975,-0.0899 -0.13643,-0.0496 -0.26975,-0.10852 -0.13023,-0.062 -0.23255,-0.15503 -0.10231,-0.0961 -0.16743,-0.23254 -0.062,-0.13643 -0.062,-0.33177 0,-0.17673 0.0682,-0.33486 0.0682,-0.16123 0.19844,-0.28215 0.13023,-0.12093 0.32246,-0.19224 0.19224,-0.0713 0.44029,-0.0713 0.28215,0 0.51159,0.093 0.22945,0.093 0.39068,0.26045 z"
         id="text17"
         aria-label="gradients" />
      <circle
         style="fill:#ff0000;stroke:#000000;stroke-width:0.466667;stroke-miterlimit:3.8;stroke-dasharray:none"
         id="path4-5-3-6-6-7"
         cx="134.2097"
         cy="-122.79651"
         r="3.2666667"
         transform="rotate(59.451855)" />
      <circle
         style="fill:#ff0000;stroke:#000000;stroke-width:0.466667;stroke-miterlimit:3.8;stroke-dasharray:none"
         id="path4-5-3-6-9-7"
         cx="186.44888"
         cy="54.167862"
         r="3.2666667" />
      <circle
         style="fill:#ff0000;stroke:#000000;stroke-width:0.466667;stroke-miterlimit:3.8;stroke-dasharray:none"
         id="path4-5-3-5-0-3-2"
         cx="171.92972"
         cy="65.541649"
         r="3.2666667" />
      <circle
         style="fill:#ff0000;stroke:#000000;stroke-width:0.466667;stroke-miterlimit:3.8;stroke-dasharray:none"
         id="path4-5-3-6-6-1"
         cx="151.77924"
         cy="-130.59142"
         r="3.2666667"
         transform="rotate(59.451855)" />
      <circle
         style="fill:#ff0000;stroke:#000000;stroke-width:0.466667;stroke-miterlimit:3.8;stroke-dasharray:none"
         id="path4-5-3-6-9-9"
         cx="202.09181"
         cy="65.336914"
         r="3.2666667" />
      <circle
         style="fill:#ff0000;stroke:#000000;stroke-width:0.466667;stroke-miterlimit:3.8;stroke-dasharray:none"
         id="path4-5-3-5-0-3-6"
         cx="166.62309"
         cy="89.995773"
         r="3.2666667" />
      <circle
         style="fill:#ff0000;stroke:#000000;stroke-width:0.466667;stroke-miterlimit:3.8;stroke-dasharray:none"
         id="path4-5-3-5-5"
         cx="163.02489"
         cy="144.89607"
         r="3.2666667" />
      <path
         sodipodi:type="star"
         style="fill:#d4aa00;stroke:#000000;stroke-width:0.5;stroke-miterlimit:3.8;stroke-dasharray:none"
         id="path13-14-1"
         inkscape:flatsided="true"
         sodipodi:sides="6"
         sodipodi:cx="158.79852"
         sodipodi:cy="56.238316"
         sodipodi:r1="3.3632736"
         sodipodi:r2="2.4252529"
         sodipodi:arg1="0.75683451"
         sodipodi:arg2="1.2804332"
         inkscape:rounded="0"
         inkscape:randomized="0"
         d="m 161.24367,58.547618 -3.22249,0.962906 -2.44514,-2.309303 0.77734,-3.272208 3.22249,-0.962906 2.44514,2.309303 z"
         transform="translate(-50.79092,97.474576)" />
      <path
         sodipodi:type="star"
         style="fill:#d4aa00;stroke:#000000;stroke-width:0.5;stroke-miterlimit:3.8;stroke-dasharray:none"
         id="path13-14-9-2"
         inkscape:flatsided="true"
         sodipodi:sides="6"
         sodipodi:cx="158.79852"
         sodipodi:cy="56.238316"
         sodipodi:r1="3.3632736"
         sodipodi:r2="2.4252529"
         sodipodi:arg1="0.75683451"
         sodipodi:arg2="1.2804332"
         inkscape:rounded="0"
         inkscape:randomized="0"
         d="m 161.24367,58.547618 -3.22249,0.962906 -2.44514,-2.309303 0.77734,-3.272208 3.22249,-0.962906 2.44514,2.309303 z"
         transform="translate(-52.263419,78.015691)" />
      <path
         sodipodi:type="star"
         style="fill:#d4aa00;stroke:#000000;stroke-width:0.5;stroke-miterlimit:3.8;stroke-dasharray:none"
         id="path13-17-8-3-5"
         inkscape:flatsided="true"
         sodipodi:sides="6"
         sodipodi:cx="158.79852"
         sodipodi:cy="56.238316"
         sodipodi:r1="3.3632736"
         sodipodi:r2="2.4252529"
         sodipodi:arg1="0.75683451"
         sodipodi:arg2="1.2804332"
         inkscape:rounded="0"
         inkscape:randomized="0"
         d="m 161.24367,58.547618 -3.22249,0.962906 -2.44514,-2.309303 0.77734,-3.272208 3.22249,-0.962906 2.44514,2.309303 z"
         transform="translate(-45.660811,66.858309)" />
      <path
         sodipodi:type="star"
         style="fill:#d4aa00;stroke:#000000;stroke-width:0.5;stroke-miterlimit:3.8;stroke-dasharray:none"
         id="path13-17-8-9"
         inkscape:flatsided="true"
         sodipodi:sides="6"
         sodipodi:cx="158.79852"
         sodipodi:cy="56.238316"
         sodipodi:r1="3.3632736"
         sodipodi:r2="2.4252529"
         sodipodi:arg1="0.75683451"
         sodipodi:arg2="1.2804332"
         inkscape:rounded="0"
         inkscape:randomized="0"
         d="m 161.24367,58.547618 -3.22249,0.962906 -2.44514,-2.309303 0.77734,-3.272208 3.22249,-0.962906 2.44514,2.309303 z"
         transform="translate(-37.112609,93.500897)" />
      <path
         sodipodi:type="star"
         style="fill:#d4aa00;stroke:#000000;stroke-width:0.5;stroke-miterlimit:3.8;stroke-dasharray:none"
         id="path13-3-1-3"
         inkscape:flatsided="true"
         sodipodi:sides="6"
         sodipodi:cx="158.79852"
         sodipodi:cy="56.238316"
         sodipodi:r1="3.3632736"
         sodipodi:r2="2.4252529"
         sodipodi:arg1="0.75683451"
         sodipodi:arg2="1.2804332"
         inkscape:rounded="0"
         inkscape:randomized="0"
         d="m 161.24367,58.547618 -3.22249,0.962906 -2.44514,-2.309303 0.77734,-3.272208 3.22249,-0.962906 2.44514,2.309303 z"
         transform="rotate(46.686084,67.020387,130.6238)" />
      <path
         sodipodi:type="star"
         style="fill:#d4aa00;stroke:#000000;stroke-width:0.5;stroke-miterlimit:3.8;stroke-dasharray:none"
         id="path13-3-3-9"
         inkscape:flatsided="true"
         sodipodi:sides="6"
         sodipodi:cx="158.79852"
         sodipodi:cy="56.238316"
         sodipodi:r1="3.3632736"
         sodipodi:r2="2.4252529"
         sodipodi:arg1="0.75683451"
         sodipodi:arg2="1.2804332"
         inkscape:rounded="0"
         inkscape:randomized="0"
         d="m 161.24367,58.547618 -3.22249,0.962906 -2.44514,-2.309303 0.77734,-3.272208 3.22249,-0.962906 2.44514,2.309303 z"
         transform="rotate(-148.69803,134.31302,114.57929)" />
      <path
         sodipodi:type="star"
         style="fill:#d4aa00;stroke:#000000;stroke-width:0.5;stroke-miterlimit:3.8;stroke-dasharray:none"
         id="path13-17-0-9"
         inkscape:flatsided="true"
         sodipodi:sides="6"
         sodipodi:cx="158.79852"
         sodipodi:cy="56.238316"
         sodipodi:r1="3.3632736"
         sodipodi:r2="2.4252529"
         sodipodi:arg1="0.75683451"
         sodipodi:arg2="1.2804332"
         inkscape:rounded="0"
         inkscape:randomized="0"
         d="m 161.24367,58.547618 -3.22249,0.962906 -2.44514,-2.309303 0.77734,-3.272208 3.22249,-0.962906 2.44514,2.309303 z"
         transform="rotate(164.61588,158.28959,88.935189)" />
      <path
         style="font-weight:bold;font-size:12.7px;line-height:1;font-family:Carlito;-inkscape-font-specification:'Carlito Bold';letter-spacing:0px;fill:#000080;stroke-width:0.5;stroke-miterlimit:3.8"
         d="m 50.260316,108.10535 v -8.911087 h 1.575098 v 3.478857 q 0.359668,-0.37207 0.799951,-0.59531 0.440283,-0.22945 0.992188,-0.22945 0.527099,0 0.948779,0.21084 0.42168,0.21084 0.719336,0.60772 0.297656,0.39067 0.458887,0.94878 0.16123,0.5581 0.16123,1.25264 0,0.75034 -0.186035,1.36425 -0.186035,0.61392 -0.5271,1.0542 -0.341064,0.43408 -0.818554,0.67593 -0.471289,0.23564 -1.0542,0.23564 -0.285253,0 -0.514697,-0.0558 -0.223242,-0.0558 -0.415478,-0.15503 -0.192237,-0.10542 -0.353467,-0.24804 -0.155029,-0.14883 -0.303857,-0.32866 l -0.06821,0.39687 q -0.03101,0.16743 -0.124024,0.23564 -0.09302,0.062 -0.241846,0.062 z m 2.821534,-5.02915 q -0.396875,0 -0.68833,0.17983 -0.291456,0.17363 -0.558106,0.5085 v 2.71611 q 0.235645,0.29145 0.508496,0.40928 0.272852,0.11782 0.58291,0.11782 0.310059,0 0.564307,-0.11162 0.254248,-0.11782 0.427881,-0.36587 0.179834,-0.25425 0.272851,-0.64492 0.09922,-0.39688 0.09922,-0.95498 0,-0.4961 -0.08062,-0.84336 -0.08061,-0.35347 -0.235645,-0.57671 -0.148828,-0.22324 -0.378271,-0.32866 -0.223242,-0.10542 -0.514697,-0.10542 z m 3.782714,5.02915 z m 1.792139,-6.15777 v 6.15777 h -1.575098 v -6.15777 z m 0.192236,-1.76733 q 0,0.20464 -0.08062,0.38447 -0.08062,0.17363 -0.217041,0.31006 -0.136426,0.13022 -0.322461,0.21084 -0.186035,0.0744 -0.390674,0.0744 -0.198437,0 -0.378271,-0.0744 -0.173633,-0.0806 -0.310059,-0.21084 -0.130224,-0.13643 -0.21084,-0.31006 -0.07441,-0.17983 -0.07441,-0.38447 0,-0.20464 0.07441,-0.384474 0.08062,-0.179833 0.21084,-0.310058 0.136426,-0.136426 0.310059,-0.21084 0.179834,-0.08061 0.378271,-0.08061 0.204639,0 0.390674,0.08061 0.186035,0.07441 0.322461,0.21084 0.136426,0.130225 0.217041,0.310058 0.08062,0.179834 0.08062,0.384474 z m 2.926954,-0.985987 v 8.911087 h -1.575098 v -8.911087 z m 5.661669,8.911087 q -0.223242,0 -0.341064,-0.062 -0.117822,-0.0682 -0.186035,-0.26665 l -0.136426,-0.40927 q -0.235644,0.20464 -0.452685,0.35967 -0.217041,0.15502 -0.452686,0.26044 -0.229443,0.10542 -0.496094,0.15503 -0.260449,0.0558 -0.58291,0.0558 -0.396875,0 -0.725537,-0.10542 -0.328662,-0.11162 -0.570508,-0.32246 -0.235644,-0.21084 -0.365869,-0.5209 -0.130225,-0.31625 -0.130225,-0.72553 0,-0.34107 0.173633,-0.68213 0.173633,-0.34107 0.589112,-0.61392 0.421679,-0.27905 1.116211,-0.45888 0.700732,-0.18604 1.742529,-0.21084 v -0.32867 q 0,-0.59531 -0.248047,-0.87436 -0.248047,-0.27905 -0.713135,-0.27905 -0.347265,0 -0.576709,0.0806 -0.223242,0.0806 -0.396875,0.17984 -0.173633,0.093 -0.322461,0.17363 -0.148828,0.0806 -0.334863,0.0806 -0.16123,0 -0.279053,-0.0806 -0.111621,-0.0868 -0.179834,-0.20464 l -0.285254,-0.49609 q 0.533301,-0.4961 1.178223,-0.73794 0.644922,-0.24185 1.395264,-0.24185 0.539502,0 0.967382,0.17983 0.427881,0.17364 0.725538,0.4961 0.297656,0.31626 0.452685,0.75654 0.155029,0.44028 0.155029,0.96738 v 3.87574 z m -2.158007,-0.97979 q 0.421679,0 0.725537,-0.14883 0.310058,-0.15503 0.613916,-0.47129 v -0.99218 q -0.613916,0.0248 -1.023194,0.10542 -0.403076,0.0744 -0.644921,0.19843 -0.241846,0.11783 -0.347266,0.27906 -0.09922,0.16123 -0.09922,0.34726 0,0.37207 0.204639,0.5271 0.21084,0.15503 0.570509,0.15503 z m 6.201172,2.6479 q -0.06821,0.16123 -0.179834,0.24185 -0.10542,0.0868 -0.322461,0.0868 h -1.184424 l 1.097608,-2.48046 -2.288233,-5.67408 h 1.382862 q 0.192236,0 0.285253,0.0868 0.09922,0.0868 0.148829,0.19844 l 1.029394,3.04477 q 0.06821,0.16743 0.117822,0.33487 0.04961,0.16743 0.09922,0.33486 0.04961,-0.17363 0.10542,-0.34107 0.05581,-0.17363 0.124023,-0.34106 l 0.961182,-3.03237 q 0.04341,-0.12403 0.161231,-0.20464 0.117822,-0.0806 0.260449,-0.0806 h 1.258838 z m 6.318993,-7.9251 q 0.58291,0 1.072803,0.19224 0.489893,0.18604 0.843359,0.5457 0.353467,0.35347 0.551905,0.87437 0.198437,0.5209 0.198437,1.19062 0,0.17984 -0.0186,0.29766 -0.0186,0.11162 -0.06201,0.17983 -0.03721,0.0682 -0.111621,0.0992 -0.06821,0.0248 -0.173633,0.0248 h -3.683496 q 0.03721,0.44648 0.16123,0.77514 0.124024,0.32867 0.328663,0.53951 0.204638,0.21084 0.483691,0.31626 0.279053,0.0992 0.620117,0.0992 0.341065,0 0.589111,-0.0806 0.254249,-0.0868 0.440284,-0.17983 0.192236,-0.0992 0.341064,-0.17984 0.148828,-0.0868 0.291455,-0.0868 0.173633,0 0.285254,0.14263 l 0.452686,0.58291 q -0.254248,0.29766 -0.564307,0.4961 -0.310059,0.19223 -0.644922,0.31005 -0.328662,0.11163 -0.669726,0.16123 -0.341065,0.0496 -0.657325,0.0496 -0.63872,0 -1.190625,-0.21084 -0.551904,-0.21084 -0.961181,-0.62631 -0.409278,-0.42168 -0.644922,-1.0356 -0.229443,-0.62012 -0.229443,-1.43247 0,-0.62632 0.204638,-1.17822 0.204639,-0.55811 0.58291,-0.96739 0.384473,-0.41547 0.930176,-0.65732 0.545703,-0.24185 1.234033,-0.24185 z m 0.03101,1.12242 q -0.601513,0 -0.942578,0.35346 -0.341064,0.34727 -0.440283,0.98599 h 2.604492 q 0,-0.26665 -0.07441,-0.5085 -0.06821,-0.24184 -0.223242,-0.42788 -0.148828,-0.18603 -0.378272,-0.29145 -0.229443,-0.11162 -0.545703,-0.11162 z m 3.702099,5.13457 v -6.15777 H 82.4568 q 0.241846,0 0.334863,0.0868 0.09922,0.0868 0.130225,0.30386 l 0.08062,0.62632 q 0.279053,-0.5271 0.651123,-0.83096 0.372071,-0.30386 0.861963,-0.30386 0.403076,0 0.663525,0.19224 l -0.117822,1.17822 q -0.0124,0.11162 -0.07441,0.16123 -0.06201,0.0434 -0.167431,0.0434 -0.09302,0 -0.266651,-0.0248 -0.173633,-0.031 -0.322461,-0.031 -0.217041,0 -0.390674,0.062 -0.167431,0.062 -0.303857,0.18603 -0.130225,0.11783 -0.235645,0.29146 -0.10542,0.17363 -0.192236,0.39687 v 3.81993 z"
         id="text18"
         aria-label="bilayer" />
      <circle
         style="fill:#ff0000;stroke:#000000;stroke-width:0.466667;stroke-miterlimit:3.8;stroke-dasharray:none"
         id="path4-5-3-6-0-6"
         cx="-47.670986"
         cy="99.002808"
         r="3.2666667"
         transform="rotate(-65.008402)" />
      <circle
         style="fill:#ff0000;stroke:#000000;stroke-width:0.466667;stroke-miterlimit:3.8;stroke-dasharray:none"
         id="path4-5-3-5-0-6-5"
         cx="-37.544529"
         cy="90.846542"
         r="3.2666667"
         transform="rotate(-65.008402)" />
      <circle
         style="fill:#ff0000;stroke:#000000;stroke-width:0.466667;stroke-miterlimit:3.8;stroke-dasharray:none"
         id="path4-5-3-5-0-4"
         cx="148.39793"
         cy="65.85701"
         r="3.2666667" />
      <circle
         style="fill:#ff0000;stroke:#000000;stroke-width:0.466667;stroke-miterlimit:3.8;stroke-dasharray:none"
         id="path4-5-3-5-0-1"
         cx="143.13489"
         cy="80.072983"
         r="3.2666667" />
      <path
         sodipodi:type="star"
         style="fill:#d4aa00;stroke:#000000;stroke-width:0.5;stroke-miterlimit:3.8;stroke-dasharray:none"
         id="path13-17-5"
         inkscape:flatsided="true"
         sodipodi:sides="6"
         sodipodi:cx="158.79852"
         sodipodi:cy="56.238316"
         sodipodi:r1="3.3632736"
         sodipodi:r2="2.4252529"
         sodipodi:arg1="0.75683451"
         sodipodi:arg2="1.2804332"
         inkscape:rounded="0"
         inkscape:randomized="0"
         d="m 161.24367,58.547618 -3.22249,0.962906 -2.44514,-2.309303 0.77734,-3.272208 3.22249,-0.962906 2.44514,2.309303 z"
         transform="translate(-3.91369,93.761142)" />
      <circle
         style="fill:#ff0000;stroke:#000000;stroke-width:0.466667;stroke-miterlimit:3.8;stroke-dasharray:none"
         id="path4-5-3-5-4-8"
         cx="133.92906"
         cy="152.47391"
         r="3.2666667" />
      <path
         sodipodi:type="star"
         style="fill:#d4aa00;stroke:#000000;stroke-width:0.5;stroke-miterlimit:3.8;stroke-dasharray:none"
         id="path13-14-6-61"
         inkscape:flatsided="true"
         sodipodi:sides="6"
         sodipodi:cx="158.79852"
         sodipodi:cy="56.238316"
         sodipodi:r1="3.3632736"
         sodipodi:r2="2.4252529"
         sodipodi:arg1="0.75683451"
         sodipodi:arg2="1.2804332"
         inkscape:rounded="0"
         inkscape:randomized="0"
         d="m 161.24367,58.547618 -3.22249,0.962906 -2.44514,-2.309303 0.77734,-3.272208 3.22249,-0.962906 2.44514,2.309303 z"
         transform="rotate(164.61588,157.64809,104.61589)" />
    </g>
  </g>
</svg>
